<?xml version="1.0" encoding="UTF-8"?>
<svg width="484px" height="96px" viewBox="0 0 121 24" version="1.1" xmlns="http://www.w3.org/2000/svg" xmlns:xlink="http://www.w3.org/1999/xlink">
    <title>编组 4</title>
    <g id="定稿" stroke="none" stroke-width="1" fill="none" fill-rule="evenodd">
        <g id="腾讯电子签官网蓝绿色文案优化" transform="translate(-173.000000, -20.000000)">
            <g id="编组-3" transform="translate(40.000000, 20.000000)">
                <g id="编组-4" transform="translate(133.816514, 0.000000)">
                    <g id="编组">
                        <path d="M21.6149293,15.5996471 L23.6668149,21.7470353 L20.5889865,21.7470353 L18.5371009,18.6727765 L5.1975823,18.6727765 L3.14569671,21.7470353 L0.0678683216,21.7470353 L2.11975391,15.5996471 L21.6149293,15.5996471 Z M21.6147483,10.4771887 L21.6147483,13.5503181 L2.11957293,13.5503181 L2.11957293,10.4771887 L21.6147483,10.4771887 Z M3.14569671,2.28162353 L5.1975823,5.35475294 L18.5371009,5.35475294 L20.5889865,2.28162353 L23.6668149,2.28162353 L21.6149293,8.42788235 L2.11975391,8.42788235 L0.0678683216,2.28162353 L3.14569671,2.28162353 Z" id="形状结合" fill="#08A89C" fill-rule="nonzero"></path>
                        <rect id="矩形" x="0" y="0" width="24.0366972" height="24"></rect>
                    </g>
                    <g id="编组-2" transform="translate(30.045872, 3.600000)" fill="#e2e8f0" fill-rule="nonzero">
                        <path d="M6.84130936,0.502628148 C7.21160716,0.502628148 7.4910555,0.539518291 7.6750544,0.613298567 C7.8613533,0.688231664 7.97175265,0.812735884 8.00855245,0.984505594 C8.0453522,1.15858094 8.0453522,1.35571262 8.00855245,1.5805119 L5.32101838,16.7273725 L3.43042964,16.7273725 L4.52292316,10.9091059 L3.26368061,10.9091059 C3.18893108,11.3056749 3.03253201,12.0342551 2.79103345,13.0936938 C2.54953485,14.1531325 2.23673674,15.3635902 1.85378899,16.7273725 L0,16.7273725 C0.581896575,14.8321416 1.07639362,12.8550607 1.48349118,10.7984354 L3.31888031,0.502628148 L6.84130936,0.502628148 L6.84130936,0.502628148 Z M4.80122147,9.38508202 L5.35781818,6.41196735 L4.05947588,6.41196735 L3.54082899,9.38508202 L4.80122147,9.38508202 Z M6.09956377,2.43474919 C6.12486363,2.29756399 6.10876374,2.20533864 6.05241406,2.15576752 C5.99721437,2.10619639 5.90061495,2.08083442 5.76606576,2.08083442 L4.83802126,2.08083442 L4.33777423,4.90638854 L5.63611653,4.90638854 L6.09956377,2.43474919 Z M13.6446689,13.0464283 L13.3111707,14.4955191 L6.91605893,14.4955191 L6.6550105,13.0464283 L13.6446689,13.0464283 Z M15.2017597,6.35663212 C15.4248585,6.75320114 15.8480559,7.12786658 16.4725023,7.48178138 C17.0957984,7.83454334 17.6926448,8.07894052 18.2618917,8.21497288 L17.7800442,9.85082 C17.4718461,9.7885679 17.1153483,9.67905028 16.7151509,9.52457284 C16.3126531,9.37009539 15.8894556,9.14990735 15.4444083,8.8651616 L14.999361,10.8353256 L15.9078553,10.8353256 C16.3655526,10.8353256 16.6530511,10.9160228 16.7703504,11.0762643 C16.8876496,11.2376587 16.9221495,11.4543883 16.8726997,11.7276058 C16.7611505,12.4584917 16.6220014,13.2862142 16.4552524,14.2096205 C16.2885033,15.1330268 16.1367042,15.9711247 16.002155,16.7285253 L10.9766848,16.7285253 L10.6431868,15.2229465 L14.2403655,15.2229465 L14.7590124,12.6763741 C14.8084622,12.4285185 14.7038125,12.3051671 14.4450641,12.3051671 L8.12240174,12.3051671 L8.71464822,9.25711932 C8.60424887,9.30669045 8.38345022,9.39430453 8.05685213,9.51880873 C7.72910411,9.64216017 7.34845636,9.7539834 6.91720891,9.85312565 L7.30590662,7.99478489 C7.91080301,7.83339053 8.49039958,7.60628558 9.04009632,7.31692857 C9.58979302,7.02526591 10.0509403,6.70593562 10.4212381,6.35893777 L7.62215475,6.35893777 L7.91885296,4.90984699 L11.4044823,4.90984699 C11.5390314,4.67351953 11.6701307,4.38877378 11.79318,4.05445686 L8.06720209,4.05445686 L8.36390034,2.56732313 L9.64269272,2.56732313 L9.19764538,0.33777534 L11.1434338,0.33777534 C11.2181833,0.747025322 11.3665325,1.49059219 11.5884812,2.56732313 L12.2566272,2.56732313 C12.4164762,1.82375626 12.5280256,0.97528306 12.5901252,0.0207507069 L14.5543137,0.0207507069 C14.4933637,1.02370137 14.3818146,1.87332739 14.2208156,2.56732313 L14.9441611,2.56732313 C15.2408595,1.94710766 15.5318077,1.2035408 15.8147063,0.33777534 L17.7627943,0.33777534 C17.6259451,0.721663352 17.4775962,1.10209291 17.317747,1.48021684 C17.156748,1.85834077 16.989999,2.22032526 16.8175002,2.56732313 L18.1894419,2.56732313 L17.8363939,4.05445686 L13.7769181,4.05445686 C13.7642681,4.116709 13.6527189,4.40145475 13.4422702,4.90984699 L18.4113904,4.90984699 L18.0594926,6.35893777 L15.2017597,6.35893777 L15.2017597,6.35663212 Z M10.3441886,10.8353256 L13.0880724,10.8353256 L13.4583699,9.12454541 L9.67719251,9.12454541 L10.5477373,9.71824609 L10.3441886,10.8353256 Z M13.2732212,6.35663212 L12.5878252,6.35663212 C12.2416773,6.83966238 11.8023799,7.29156659 11.271083,7.71349755 L14.1449161,7.71349755 C13.9839171,7.52674125 13.8229177,7.31001166 13.663069,7.06215603 C13.5020696,6.81545324 13.3732705,6.57912577 13.2732212,6.35663212 Z" id="形状"></path>
                        <path d="M23.9152577,5.03665684 L22.5065163,12.9714952 C22.8894642,12.6867495 23.7059592,12.0480889 24.9548519,11.0578192 L24.5098042,13.4741234 C23.8290086,14.0182529 23.057363,14.5888973 22.1914182,15.1837508 C21.3254734,15.7797571 20.4986284,16.3181225 19.707433,16.8 L21.5796219,6.67135111 L19.6706332,6.67135111 L19.9489314,5.03665684 L23.9152577,5.03665684 Z M24.5098042,4.05215125 L22.4892663,4.05215125 L21.8027206,0.148713378 L23.7312592,0.148713378 L24.5098042,4.05215125 Z M34.3353462,0.31587182 C34.8781429,0.31587182 35.2288905,0.40809717 35.3829896,0.594853498 C35.5370891,0.780457009 35.5704387,1.10900981 35.4853393,1.5805119 L33.1301532,14.8505867 L35.4289897,14.8505867 L34.7619934,16.5786592 L30.7577171,16.5786592 C31.0291158,15.0673163 31.3407637,13.2988952 31.6938117,11.273396 C32.0468597,9.24674395 32.2285583,8.18499964 32.2412083,8.08585743 L29.275376,8.08585743 L27.7918847,16.5786592 L25.751797,16.5786592 L27.2352883,8.08585743 L24.6949534,8.08585743 L25.0100514,6.5053455 L27.5135865,6.5053455 L28.2173822,2.52928018 L30.0159719,3.86654771 L29.5513743,6.5053455 L32.5183568,6.5053455 C32.8024051,4.82108006 33.0439036,3.48381251 33.2405526,2.49123722 C33.2773524,2.31831469 33.2681525,2.18458794 33.2129526,2.09236259 C33.1577531,2.00013724 32.9864041,1.95287175 32.7035056,1.95287175 L25.8633462,1.95287175 L25.4930487,0.317024637 L34.3353462,0.317024637 L34.3353462,0.31587182 Z" id="形状"></path>
                        <path d="M52.1878401,12.2475263 L45.8651774,12.2475263 L45.5132796,15.0719275 L52.8536862,15.0719275 L52.1866899,16.7446648 L43.0844938,16.7446648 L43.6594908,12.2475263 L37.5035772,12.2475263 L38.893919,2.17421259 L44.955533,2.17421259 L45.2338312,0.0184450733 L47.3843183,0.0184450733 L47.1255699,2.17421259 L52.0015412,2.17421259 C52.5316878,2.17421259 52.8881856,2.30448089 53.0664349,2.5650175 C53.2458335,2.82440128 53.2975833,3.27054142 53.2239837,3.90228506 L52.1878401,12.2475263 Z M39.8783133,10.5943869 L43.8825891,10.5943869 L44.2160873,7.88065601 L40.249761,7.88065601 L39.8783133,10.5943869 Z M44.7542841,3.82735195 L40.8052076,3.82735195 L40.4717095,6.24365609 L44.4403358,6.24365609 L44.7542841,3.82735195 Z M46.0698765,10.5943869 L50.2420516,10.5943869 L50.5939494,7.88065601 L46.4033742,7.88065601 L46.0698765,10.5943869 Z M50.8917976,3.82735195 L46.9059214,3.82735195 L46.6080732,6.24365609 L50.7986481,6.24365609 L51.0769467,4.16282167 C51.1022463,4.0509984 51.0987966,3.96684277 51.0677465,3.91150758 C51.035547,3.8573252 50.976897,3.82735195 50.8917976,3.82735195 Z" id="形状"></path>
                        <path d="M71.2478266,7.37918067 L71.0247278,9.12569821 L64.4433172,9.12569821 L63.3680735,16.7273725 L58.6404516,16.7273725 L58.0850049,14.924367 L61.3647855,14.924367 L62.1812805,9.12569821 L55.2284218,9.12569821 L55.4503708,7.37918067 L62.4216292,7.37918067 L62.7551273,5.01821177 C64.4364173,4.15244631 65.8635585,3.32702942 67.0377019,2.54657243 C67.0998012,2.49815412 67.1216511,2.46126398 67.1021012,2.43590201 C67.0837015,2.41054004 67.0250519,2.39901187 66.9273025,2.39901187 L57.545658,2.39901187 L57.1017609,0.651341522 L70.2818324,0.651341522 C70.5175812,0.651341522 70.6900799,0.688231664 70.8016295,0.763164757 C70.9131787,0.838097854 70.9683786,0.962602075 70.9683786,1.13437178 C70.9683786,1.23351403 70.9557286,1.36147671 70.9315788,1.51595416 C70.9062788,1.67043162 70.8763789,1.80300556 70.8395791,1.91482879 C70.7406799,2.22378371 70.4623813,2.54080835 70.0058342,2.86244424 C68.4855431,3.92764701 66.7720532,4.98708572 64.8699644,6.04076032 L64.6836659,7.37918067 L71.2478266,7.37918067 Z" id="路径"></path>
                        <path d="M86.8578341,11.0762643 C86.2138378,12.2913333 85.4180425,13.6043917 84.4646984,15.0165923 L87.8951279,15.0165923 L87.6720291,16.6524394 L72.1919713,16.6524394 L72.4334697,15.0165923 L82.4073603,15.0165923 C83.3469047,13.5675015 84.1070504,12.2532903 84.6889469,11.0762643 L86.8578341,11.0762643 Z M84.8177459,6.13298566 C86.1275883,7.5590201 87.5926794,8.94009467 89.2118701,10.2785151 L86.2828375,10.2785151 C85.7388906,9.7828038 85.181144,9.23175737 84.6141975,8.62422287 L84.3922485,10.0179785 L77.3289904,10.0179785 L77.5141396,8.82827145 C77.3048406,9.00234682 77.0138924,9.22714607 76.6435949,9.50612776 C76.2732969,9.78510945 75.9075989,10.0421876 75.5488012,10.2773622 L72.5082191,10.2773622 C73.6697125,9.58336648 74.7300058,8.85593904 75.6879503,8.09392714 C76.6458948,7.33076235 77.5578393,6.50995676 78.4226343,5.63035753 L83.4285543,5.63035753 C83.787352,5.63035753 84.0403507,5.65226101 84.1898499,5.69491523 C84.337049,5.7387223 84.4669983,5.80904411 84.5785475,5.90933917 C84.6889469,6.00963427 84.7682966,6.08456734 84.8177459,6.13298566 Z M76.9943425,3.04920058 C76.4618958,3.86539491 76.0041986,4.53633431 75.6212506,5.05510188 L73.2304149,5.05510188 C74.194109,3.78008647 74.9232047,2.74716256 75.4177018,1.96209428 C75.9121988,1.17472037 76.2767467,0.521073217 76.5124954,0.00115281682 L78.7549822,0.00115281682 L77.9407868,1.48828656 L81.9818629,1.48828656 L81.6115649,3.04920058 L79.4967279,3.04920058 C79.7324762,3.543759 80.0958742,4.19510053 80.5915211,4.99976669 L78.4226343,4.99976669 C78.1880353,4.51673643 77.8970871,3.86539491 77.5520891,3.04920058 L76.9943425,3.04920058 Z M76.1789973,10.8906608 C76.747094,12.1795101 77.3163408,13.3553832 77.8844371,14.4217388 L75.6787505,14.4217388 C75.2084032,13.369217 74.7392061,12.1898854 74.2688588,10.8906608 L76.1789973,10.8906608 Z M77.8844371,8.53084473 L84.5405979,8.53084473 L83.3906048,7.26620464 C83.3653048,7.24084265 83.328505,7.20625815 83.2790552,7.16360393 C83.2307556,7.12094971 83.1491059,7.09904618 83.0387065,7.09904618 L79.4783277,7.09904618 C78.8607817,7.69389967 78.3294848,8.17231867 77.8844371,8.53084473 Z M80.8123199,10.8906608 C81.2205674,12.1910382 81.6529651,13.369217 82.1106624,14.4217388 L80.0153747,14.4217388 C79.7807762,13.7139093 79.4277282,12.5380361 78.9585311,10.8906608 L80.8123199,10.8906608 Z M85.2627937,1.48713374 L90.1376147,1.48713374 L89.9156657,3.04804777 L87.0418331,3.04804777 C87.1292324,3.18292734 87.3132314,3.45960337 87.5984295,3.87461743 C87.8824779,4.29078433 88.2412756,4.7818843 88.6736733,5.35137584 L86.338037,5.35137584 C85.8803397,4.62048994 85.4352924,3.85386674 85.0028951,3.04804777 L84.3922485,3.04804777 C84.0702506,3.59217733 83.668903,4.24351885 83.1859057,4.99861388 L80.7766703,4.99861388 C81.962313,3.4123379 82.9766072,1.74651753 83.817252,0 L86.022939,0 C85.8009904,0.446140124 85.5468416,0.941851372 85.2627937,1.48713374 Z" id="形状"></path>
                    </g>
                </g>
            </g>
        </g>
    </g>
</svg>